<svg width="32" height="32" viewBox="0 0 257 300" fill="none" xmlns="http://www.w3.org/2000/svg">
  <!-- Center eye shape -->
  <path
    fill-rule="evenodd"
    clip-rule="evenodd"
    d="M149.995 110.769C171.666 110.769 189.226 128.334 189.226 150C189.226 171.666 171.666 189.23 149.995 189.23C128.325 189.23 110.76 171.666 110.76 150C110.76 128.334 128.325 110.769 149.995 110.769ZM149.995 60.7905C199.266 60.7905 239.205 100.729 239.205 150V239.209H214.213C205.539 239.209 197.862 234.726 193.374 227.965C180.535 235.125 165.74 239.209 149.995 239.209C100.725 239.209 60.7859 199.27 60.7859 150C60.7859 100.729 100.725 60.7905 149.995 60.7905Z"
    fill="#E2E8F0"
  />
  <!-- Purple segment -->
  <path
    fill-rule="evenodd"
    clip-rule="evenodd"
    d="M154.928 300C194.409 298.727 230.046 282.206 256.124 256.125L239.208 239.209H214.217C205.543 239.209 197.865 234.726 193.382 227.969C181.887 234.374 168.832 238.314 154.928 239.074V300Z"
    fill="#8B5CF6"
  />
  <!-- Blue segment -->
  <path
    fill-rule="evenodd"
    clip-rule="evenodd"
    d="M154.928 60.9264C177.599 62.1607 198.018 71.857 213.076 86.9189L256.124 43.8709C230.046 17.7935 194.413 1.26824 154.928 0V60.9264Z"
    fill="#2563EB"
  />
  <!-- Pink segment -->
  <path
    fill-rule="evenodd"
    clip-rule="evenodd"
    d="M90.5023 83.5299C105.149 70.4149 124.147 62.0674 145.066 60.9264V0.00430298C107.341 1.22164 73.1372 16.3599 47.4204 40.4522L90.4981 83.5299H90.5023Z"
    fill="#F633B4"
  />
  <!-- Green segment -->
  <path
    fill-rule="evenodd"
    clip-rule="evenodd"
    d="M60.9262 145.067C62.0672 124.147 70.4146 105.149 83.5339 90.5031L40.4562 47.4254C16.3681 73.1464 1.22564 107.346 0.00830078 145.067H60.9304H60.9262Z"
    fill="#10A34A"
  />
  <!-- Orange segment -->
  <path
    fill-rule="evenodd"
    clip-rule="evenodd"
    d="M83.5299 209.493C70.4106 194.846 62.0674 175.848 60.9221 154.929H0C1.21734 192.654 16.3556 226.858 40.4479 252.575L83.5256 209.497L83.5299 209.493Z"
    fill="#E67E22"
  />
  <!-- Red segment -->
  <path
    fill-rule="evenodd"
    clip-rule="evenodd"
    d="M145.066 239.074C124.142 237.933 105.144 229.585 90.5023 216.466L47.4246 259.544C73.1456 283.632 107.346 298.774 145.071 299.992V239.07L145.066 239.074Z"
    fill="#E03E3E"
  />
</svg>
